<?xml version="1.0" standalone="no"?>
<!DOCTYPE svg PUBLIC "-//W3C//DTD SVG 20010904//EN"
 "http://www.w3.org/TR/2001/REC-SVG-20010904/DTD/svg10.dtd">
<svg version="1.0" xmlns="http://www.w3.org/2000/svg"
 width="700.000000pt" height="700.000000pt" viewBox="0 0 700.000000 700.000000"
 preserveAspectRatio="xMidYMid meet">
<metadata>
Created by potrace 1.14, written by Peter Selinger 2001-2017
</metadata>
<g transform="translate(0.000000,700.000000) scale(0.100000,-0.100000)"
fill="#000000" stroke="none">
<path d="M3455 6101 c-36 -21 -135 -75 -230 -126 -38 -21 -83 -45 -100 -55
-33 -19 -169 -93 -225 -122 -19 -10 -42 -22 -50 -28 -8 -5 -60 -33 -115 -63
-55 -30 -131 -71 -170 -93 -38 -21 -95 -52 -127 -68 -31 -17 -179 -98 -330
-180 -335 -183 -551 -301 -643 -351 -38 -21 -90 -49 -115 -63 -134 -73 -595
-324 -654 -356 -38 -20 -74 -40 -80 -45 -6 -4 -56 -32 -111 -61 -124 -65 -205
-111 -205 -115 0 -3 143 -83 285 -160 39 -21 117 -63 175 -95 58 -32 121 -66
140 -76 72 -39 816 -446 830 -454 20 -12 646 -352 740 -403 41 -22 93 -50 115
-62 22 -12 65 -36 95 -52 628 -344 812 -443 820 -443 6 0 110 55 232 121 123
67 252 138 288 157 36 19 79 42 95 52 17 10 62 34 100 55 39 21 93 50 120 65
245 134 497 272 575 313 52 28 107 59 122 69 14 10 29 18 32 18 3 0 45 22 93
49 49 26 120 65 158 86 39 21 93 50 120 65 28 15 76 42 108 59 31 17 83 45
115 63 92 51 143 79 207 113 33 18 83 45 110 60 97 54 138 75 144 75 3 0 6
-447 5 -992 0 -546 1 -998 3 -1004 3 -8 92 -11 293 -11 l290 -1 0 1167 0 1166
-37 20 c-21 11 -92 50 -158 86 -66 36 -151 83 -190 104 -38 21 -92 50 -120 65
-27 15 -81 44 -120 65 -38 21 -90 49 -115 63 -25 13 -79 43 -120 65 -41 22
-109 59 -150 82 -41 23 -111 61 -155 85 -44 24 -93 50 -110 60 -16 9 -66 36
-110 60 -44 24 -111 60 -148 82 -38 21 -70 38 -72 38 -2 0 -34 17 -72 39 -37
21 -122 68 -188 103 -66 36 -221 120 -345 188 -124 67 -247 135 -275 150 -27
14 -81 44 -120 65 -38 21 -96 53 -128 71 -32 19 -60 34 -62 34 -2 0 -64 33
-137 74 -298 164 -275 155 -323 127z"/>
<path d="M1459 3108 c0 -24 -1 -285 -2 -580 l-2 -537 225 -122 c124 -68 304
-166 400 -219 96 -53 216 -118 265 -145 50 -26 128 -69 175 -95 47 -26 146
-80 220 -120 74 -40 155 -84 180 -97 25 -14 74 -41 110 -61 36 -19 79 -42 95
-52 17 -10 66 -37 110 -60 44 -24 119 -65 168 -92 95 -52 103 -54 132 -35 11
8 61 35 110 62 50 26 113 60 140 75 62 34 901 492 972 531 28 15 215 117 415
225 200 109 364 199 366 200 6 3 4 1155 -2 1161 -3 3 -20 -4 -38 -15 -18 -10
-62 -35 -98 -54 -73 -40 -294 -160 -355 -193 -22 -12 -67 -37 -100 -55 -33
-18 -80 -44 -105 -58 -25 -13 -72 -39 -105 -57 -33 -18 -134 -73 -225 -123
-91 -49 -196 -107 -235 -127 -38 -21 -108 -59 -155 -85 -47 -26 -121 -66 -165
-90 -44 -24 -119 -65 -166 -91 -48 -27 -92 -49 -98 -49 -6 0 -11 -4 -11 -8 0
-4 -12 -13 -27 -19 -16 -7 -56 -27 -91 -46 l-63 -35 -182 100 c-100 55 -211
116 -247 135 -36 19 -83 44 -105 57 -22 12 -74 40 -115 63 -108 58 -150 81
-510 278 -179 98 -354 194 -390 213 -36 19 -103 56 -150 82 -47 26 -121 66
-165 90 -44 23 -99 53 -123 66 -23 13 -45 24 -47 24 -3 0 -5 -19 -6 -42z"/>
</g>
</svg>
